<?xml version="1.0" encoding="UTF-8" standalone="no"?>
<!-- Created with Inkscape (http://www.inkscape.org/) -->

<svg
   width="778.26703"
   height="631.91211"
   viewBox="0 0 778.26703 631.91211"
   version="1.1"
   id="svg1"
   xml:space="preserve"
   xmlns="http://www.w3.org/2000/svg"
   xmlns:svg="http://www.w3.org/2000/svg"><defs
     id="defs1" /><g
     id="layer1"
     transform="translate(-166.27287,-810.73523)"><rect
       style="font-variation-settings:'opsz' 32;fill:#f7f6f2;fill-opacity:1;fill-rule:evenodd;stroke:none;stroke-width:0.339618;stroke-miterlimit:4.7"
       id="rect209"
       width="1140.1361"
       height="2596.2273"
       x="-12.592137"
       y="-91.559738" /><path
       id="path189"
       style="font-variation-settings:'opsz' 32;fill:#f0efe9;fill-opacity:1;fill-rule:evenodd;stroke:none;stroke-width:0.377953;stroke-miterlimit:4.7"
       d="M 820.56067,1342.1211 C 0,603.72118 0,603.72118 820.56067,1342.1211 Z" /><g
       id="g207"
       transform="matrix(0.49999994,0,0,0.49999994,144.40978,786.96941)"
       style="fill:#1a1f2e;fill-opacity:1;stroke:none"><path
         d="m 6.9789,-0.0074 c 2.793,-0.0047 5.5858,-0.0022 8.3788,2e-4 2.0107,-0.0019 4.0215,-0.0041 6.0323,-0.0069 4.3876,-0.0051 8.7752,-0.0065 13.1628,-0.0055 6.5252,0.0015 13.0504,-0.0027 19.5756,-0.0079 99.71886,-0.0049219 199.43774,-0.07499122 299.1566,-0.0748 2.7467,0 5.4934,1e-4 8.2401,1e-4 h 2.0494 c 10.8625,1e-4 21.7251,-0.0063 32.5876,-0.0149 10.9333,-0.0085 21.8666,-0.0095 32.7999,-0.0029 6.4863,0.0037 12.9725,0.0019 19.4588,-0.008 4.3452,-0.006 8.6904,-0.0046 13.0356,0.0025 2.4678,0.0039 4.9355,0.0036 7.4033,-0.0034 34.50447,-0.0923 68.41408,6.6840801 71.92548,7.3605801 4.7487,1.0035 30.03644,10.1686799 34.46674,12.1000799 23.67124,9.929832 46.08177,24.777341 63.8161,43.0645 16.7289,-14.220044 18.03861,-15.812995 33.68628,-27.26976 8.27273,-5.7844 23.86086,-11.962838 32.5459,-15.4609 1.7061,-0.692 3.3929,-1.425 5.0791,-2.1641 10.20007,-3.954321 20.50334,-7.380131 31.25,-9.375 6.67133,-1.5710516 9.71556,-2.3757982 15.3711,-3.3945 106.48265,-9.8349542 214.09489,-4.75635665 320.9343,-4.8113 245.5949,-0.14737222 -121.32701,0.1533818 119.7777,-0.0378 10.8968,-0.0085 21.7935,-0.0095 32.6903,-0.0029 6.4751,0.0037 12.9501,0.0018 19.4252,-0.008 4.3248,-0.0059 8.6496,-0.0047 12.9744,0.0025 2.4644,0.0039 4.9286,0.0035 7.3929,-0.0034 2.6562,-0.0071 5.3121,-0.0018 7.9682,0.0065 0.7628,-0.005 1.5257,-0.0099 2.3116,-0.015 9.1768,0.28931015 11.2638,1.2375681 16.8418,2.5764 5.4554,1.126121 10.0303,2.8172 14.8471,5.02 1.3255,0.6038 2.6624,1.1821 4.0005,1.7573 7.0891,3.2391 12.9643,7.8471 18.9947,12.731 0.9775,0.784 1.9669,1.5535 2.9677,2.3076 1.2022,0.9132 8.0075,7.7103 9.19,9.2466 0.3537,0.4548 0.7075,0.9096 1.072,1.3782 1.0881,1.4097 2.1643,2.828 3.2405,4.2468 0.6058,0.7799 1.2117,1.5598 1.8359,2.3633 9.5193,12.8144 15.1686,27.8908 17.1453,43.6684 0.3807,3.3192 0.7201,6.6408 1.0188,9.9683 0.727,0.1109 1.454,0.2217 2.2031,0.3359 11.5353,1.8331 32.9523,25.71884 36.7969,35.6641 0.154,0.2907 0.154,0.2907 0.9336,1.7617 4.7613,9.794 6.2321,22.5815 6.1929,33.3573 v 2.0781 c 0,2.2954 7e-4,4.5907 0,6.8861 0,1.6704 0,3.3408 0.01,5.0113 0,4.6054 0,9.2109 7e-4,13.8164 v 13.4659 c 0.01,9.2928 0.01,18.5856 0.01,27.8785 0,9.4176 -10e-5,18.8352 0,28.2528 2e-4,0.5949 4e-4,1.1897 7e-4,1.8025 9e-4,2.4226 0,4.8451 0,7.2677 0.1082,273.48721 -0.046,17.71705 0.055,445.4061 0,11.7185 0.01,23.4371 0.01,35.1556 10e-5,0.3608 10e-5,0.3608 7e-4,2.1866 0.01,22.2404 0.01,44.4808 0.011,66.7212 0,0.6983 10e-5,1.3966 10e-5,2.1161 9e-4,15.3297 0,30.6594 9e-4,45.9892 -10e-5,5.4853 -2e-4,10.9707 -2e-4,16.456 0,1.3646 0,2.7292 -1e-4,4.0939 -10e-5,21.7405 0.01,43.481 0.014,65.2215 0.01,21.8988 0.011,43.7977 0,65.6966 -9e-4,3.0274 0,6.0549 0,9.0823 -10e-5,0.2968 -10e-5,0.2968 -5e-4,1.7984 0,9.3889 0,18.7778 0.01,28.1666 0.01,9.237 0.01,18.4738 0,27.7108 v 14.8172 c 0.01,4.4968 0.01,8.9935 0,13.4903 0,1.6132 -10e-5,3.2264 0.01,4.8396 0.039,12.3208 -0.5713,24.2323 -4.8818,35.9112 -0.2609,0.7132 -0.5218,1.4263 -0.7906,2.1611 -5.928,15.5884 -15.3902,27.6625 -28.1469,38.3389 -11.9245,9.5588 -27.4395,16.1842 -42.5006,18.5905 -4.5304,0.6291 -9.0294,0.612 -13.5963,0.6023 -0.9593,0 -1.9186,0 -2.9069,0.01 -2.658,0.01 -5.3159,0 -7.9738,0 -2.8938,0 -5.7876,0 -8.6814,0.01 -5.0708,0.01 -10.1415,0.01 -15.2123,0.01 -7.5414,7e-4 -15.0828,0.01 -22.6242,0.015 -11.9144,0.012 -23.8287,0.021 -35.7431,0.027 -18.9329,0.01 -37.8658,0.029 -56.7987,0.052 -7.2904,0.01 -14.5807,0.017 -21.8711,0.025 -0.405,5e-4 -0.405,5e-4 -2.4546,0 -423.50107,0.4832 184.2352,-0.3505 -226.7065,0.205 -3.9781,0.01 -7.9563,0.011 -11.9344,0.016 h -2.3723 c -12.5537,0.016 -25.1074,0.022 -37.6612,0.023 -12.6434,0 -25.2867,0.014 -37.9301,0.037 -7.4932,0.013 -14.9862,0.018 -22.4793,0.011 -5.0277,0 -10.0552,0 -15.0829,0.019 -23.02689,-0.6543 -45.87093,1.5002 -68.5198,5.5754 -16.18164,3.4212 -23.65858,6.5663 -31.9505,15.638 -7.6288,8.7079 -14.833,14.3407 -25.8047,18.3477 -18.6308,5.943 -39.9167,6.7577 -59.0437,2.6425 -14.0082,-3.3885 -24.2272,-10.0863 -34.7141,-19.7636 -10.87918,-11.932 -25.60337,-15.3953 -40.6658,-18.6448 -16.6475,-3.308 -33.5646,-3.6945 -50.4769,-3.6552 -2.9163,0 -5.8327,0 -8.749,-0.01 -5.0899,-0.01 -10.1797,-0.01 -15.2696,-0.01 -152.50605,-0.1244 -305.01227,-0.1366 -457.5183,-0.299 -7.5177,-0.011 -15.0353,-0.014 -22.553,0 -5.0296,0.01 -10.059,-2e-4 -15.0886,-0.014 -2.86,-0.01 -5.7199,-0.011 -8.5799,-8e-4 -20.3565,0.067 -38.9466,-2.2242 -56.8567,-12.4655 -6.754,-4.054 -12.7249,-9.2065 -18.1172,-14.9297 -0.8738,-0.8554 -1.7488,-1.7096 -2.625,-2.5625 -2.008,-2.0144 -3.57838,-3.9831 -5.41919,-6.2718 l -1.90057,-2.2541 c -5.72467,-9.2574 -14.14415,-23.887 -14.18174,-37.5697 -0.002,-0.6968 -0.003,-1.3935 -0.005,-2.1113 0.002,-8.8006 -0.008,-17.6013 -0.004,-26.4019 0.002,-4.6032 -0.002,-9.2064 -0.005,-13.8096 -0.006,-9.5353 -0.008,-19.0707 -0.007,-28.606 0.001,-9.6681 1e-4,-19.3361 -0.004,-29.0042 -3e-4,-0.6098 -5e-4,-1.2196 -7e-4,-1.8478 l -0.003,-7.4504 c -0.0173,-256.0738 -0.13412,-512.14761 -0.0934,-768.2214 9e-4,-3.0994 0.002,-6.1988 0.003,-9.2982 10e-5,-0.6076 3e-4,-1.2152 4e-4,-1.8413 0.002,-9.6445 -0.002,-19.2891 -0.009,-28.9337 -0.007,-9.4695 -0.007,-18.9391 10e-4,-28.4086 0.004,-5.0715 0.005,-10.1428 -0.004,-15.2143 -0.007,-4.604 -0.005,-9.208 0.004,-13.812 0.002,-1.6644 1e-4,-3.3288 -0.005,-4.9932 -0.0129,-4.46914 -0.0959,-8.93119 0.2566,-13.388 0.76098,-5.89911 2.88451,-11.11936 6,-16.58448 4.0225,-8.22163 9.73843,-15.22809 15.8125,-22.04832 7.43339,-7.0483 14.07884,-11.538709 23.1875,-14.3672 3.682507,-17.576805 6.103149,-25.846891 12.039521,-40.84758 4.165791,-9.05563 11.565861,-17.602635 18.39914,-24.889112 C -58.598161,25.100431 -53.660553,21.543092 -48.8524,17.827 -26.55146,0.86732611 1.8148116,0.00354216 6.9789,-0.0074 Z m -29.4746,33.2589 c -0.6625,0.2971 -1.325,0.5943 -2.0076,0.9004 -6.652,3.1206 -12.3119,7.2047 -17.8674,11.9746 -0.6523,0.5401 -1.3046,1.0802 -1.9766,1.6367 -8.2272,7.4571 -14.4928,18.3515 -17.9414,28.8517 -3.7248,11.7091 -4.519,23.2144 -4.4623,35.4247 -0.0035,1.6628 -0.0082,3.3257 -0.0142,4.9886 -0.0124,4.5474 -0.0064,9.0945 0.0029,13.6418 0.006,4.4435 -0.0022,8.8869 -0.0099,13.3303 -0.0153,9.1905 -0.0166,18.3809 -0.01,27.5714 0.0067,9.3063 0.0068,18.6125 -10e-4,27.9187 -5e-4,0.5891 -0.001,1.1781 -0.0015,1.785 -0.002,2.3993 -0.0041,4.7987 -0.0062,7.198 -0.0213,24.3246 -0.0234,48.6492 -0.0179,72.9738 7e-4,3.3583 0.0015,6.7165 0.0022,10.0748 1e-4,0.6671 2e-4,1.3342 4e-4,2.0215 -0.207503,231.47874 0.218151,462.95846 -0.0841,694.4371 -0.0122,9.1357 -0.01,18.2714 0.0073,27.4071 0.0088,4.8813 0.011,9.7625 -0.0043,14.6438 -0.09089,29.3109 0.06825,32.2494 2.7676,44.8723 1.2215,5.1494 3.2208,9.5874 5.749,14.2227 0.4576,0.8637 0.9152,1.7273 1.3867,2.6172 7.0106,12.1686 16.9691,21.6551 29.0469,28.8281 1.833,0.9356 3.6622,1.7766 5.5664,2.5547 0.825,0.3712 1.65,0.7425 2.5,1.125 8.5255,2.9839 16.5928,3.3029 25.5439,3.4892 1.5445,0.038 3.089,0.076 4.6335,0.1137 120.27946,0.8246 240.56928,0.632 360.8536,0.8373 3.3227,0.01 6.6454,0.011 9.9681,0.017 0.3268,6e-4 0.3268,6e-4 1.9808,0 10.4304,0.017 20.8608,0.028 31.2912,0.035 10.5095,0.01 21.019,0.022 31.5284,0.043 5.6713,0.011 11.3426,0.02 17.0139,0.019 51.24273,1.3125 64.62429,2.1606 99.9366,6.7394 6.01852,1.0745 11.7986,3.0717 17.75,4.5625 0.9152,0.2191 1.8304,0.4383 2.7734,0.6641 12.9205,3.3634 25.4546,10.274 35.5,19.0586 1.9009,1.4063 3.4162,1.8651 5.7266,2.2773 2.30817,-12.0593 2.21133,-15.1967 2.2072,-25.2842 -0.37889,-143.00019 -0.10614,-285.99784 -0.5779,-428.9988 -0.0127,-2.8852 -0.0116,-5.7699 6e-4,-8.6551 0.002,-1.0433 -10e-4,-2.0866 -0.01,-3.1299 -0.0602,-7.7151 -0.0602,-7.7151 0.9927,-10.6233 1.2583,-2.2136 2.6575,-3.5202 4.665,-5.0939 3.2645,-1.4566 5.7578,-1.697 9.2852,-1.6523 0.5639,-0.02 1.1279,-0.04 1.709,-0.0605 0.551,6e-4 1.1021,10e-4 1.6699,0.002 0.4918,-0.002 0.9837,-0.004 1.4905,-0.006 1.9703,0.6304 3.2723,1.6595 4.6989,3.142 1.0896,1.7046 1.2335,2.9068 1.3724,4.9214 0.022,1.4651 0.0218,2.9305 0.005,4.3956 0.006,0.8117 0.0126,1.6233 0.0191,2.4596 0.0163,2.7372 0.004,5.4736 -0.008,8.2108 0.006,1.9752 0.0133,3.9503 0.0227,5.9254 0.13123,151.14889 0.34432,302.2979 0.4585,453.4469 5.15791,-0.7083 9.26376,-2.2696 13.75,-5.5 4.99578,-3.5052 7.96135,-4.81 12.125,-6.9375 4.9805,-2.5221 9.9166,-4.5859 15.3125,-6.0313 1.9654,-0.576 3.8425,-1.2861 5.75,-2.0312 18.22218,-5.1157 37.64028,-8.5559 59.4375,-10.0004 31.89032,-2.7852 40.22864,-2.7199 79.7247,-2.7212 5.74521,-2e-4 11.4904,0.013 17.2357,0.014 10.6017,10e-4 21.2034,0.011 31.8052,0.026 10.4914,0.015 20.9828,0.026 31.4742,0.03 0.6556,3e-4 1.3112,5e-4 1.9868,8e-4 h 9.9925 c 85.0085,0.095 170.0172,0.087 255.0257,0.183 10.5407,0.013 21.0815,0.022 31.6223,0.028 6.2484,0 12.4969,0.01 18.7453,0.021 4.6823,0.01 9.3647,0.01 14.047,0.01 1.8812,10e-4 3.7623,0 5.6435,0.01 9.1845,0.022 18.3405,-0.079 27.5142,-0.5577 0.7731,-0.039 1.5462,-0.078 2.3427,-0.1176 0.7048,-0.041 1.4096,-0.083 2.1357,-0.1255 12.204,-0.7074 33.3005,-10.0253 40.9721,-19.4529 4.8115,-7.6124 9.9964,-16.7359 12.899,-26.0305 8.6546,-48.8577 2.4906,-148.3775 2.5004,-220.0385 2e-4,-1.0667 3e-4,-2.1335 4e-4,-3.2003 0,-22.4367 0.01,-44.8735 0.01,-67.3103 v -33.8583 l 6e-4,-5.1045 c 0,-32.5516 0.01,-65.1032 0.018,-97.6548 0.014,-53.6106 0.027,-107.2212 -0.348,-470.4182 -0.031,-8.3781 -0.055,-16.7563 -0.075,-25.1345 -0.022,-9.0707 -0.054,-18.1413 -0.1015,-27.2119 -0.023,-4.4332 -0.042,-8.8663 -0.048,-13.2996 -0.01,-3.9505 -0.025,-7.9006 -0.056,-11.8509 -0.01,-1.4001 -0.012,-2.8002 -0.01,-4.2003 0.014,-14.1247 -3.0323,-26.9368 -9.9615,-39.3597 -6.4939,-11.0485 -14.8467,-19.7337 -25.8984,-26.25 -15.8328,-8.8297 -32.2198,-10.388 -50.0508,-10.3185 -1.9459,-0.0034 -3.8917,-0.0082 -5.8376,-0.0141 -4.209,-0.0108 -8.4179,-0.0106 -12.6269,-0.0029 -6.2601,0.0114 -51.1787,-4.063822 -71.1727,-3.055592 -164.6,-1.603948 -240.2968,-3.435863 -384.71289,4.418931 -27.91336,3.626407 -62.72561,11.713615 -86.17331,25.034661 -0.6605,0.3735 -1.321,0.747 -2.0015,1.1318 -14.88573,8.551924 -25.64133,18.458542 -34.7168,27.3077 -3.1632,3.2012 -6.1404,6.5857 -8.2817,10.5605 -1.16273,12.98075 -0.68123,26.18195 -0.6465,39.2362 0.0212,6.6389 0.0138,13.2775 4e-4,19.9164 -0.0218,11.1692 -0.0206,22.3384 -0.007,33.5076 0.27302,222.04924 -0.25913,11.59193 -0.1015,316.192 0.005,10.419 0.004,20.8379 -0.003,31.2568 -0.004,6.6001 -0.002,13.2002 0.008,19.8003 0.006,4.4044 0.005,8.8086 -0.002,13.213 -0.004,2.5122 -0.003,5.0242 0.004,7.5364 0.007,2.7024 0.002,5.4045 -0.006,8.1068 0.005,0.7849 0.0102,1.5697 0.0154,2.3784 -0.0199,3.0797 -0.0995,5.421 -1.1915,8.3244 -1.0716,1.5317 -1.0716,1.5317 -2.4662,2.2734 -1.79,0.288 -3.4789,0.3879 -5.2929,0.3911 -0.6987,10e-4 -1.3974,0.003 -2.1172,0.004 -0.7245,-0.004 -1.4489,-0.008 -2.1953,-0.0117 -0.7245,0.004 -1.4489,0.008 -2.1953,0.0117 -0.6987,-10e-4 -1.3974,-0.003 -2.1172,-0.004 -0.6355,-10e-4 -1.271,-0.002 -1.9258,-0.003 -1.8174,-0.1335 -3.1347,-0.2998 -4.7617,-1.1294 -1.145,-2.5014 -1.1234,-4.8327 -1.1203,-7.5537 -7e-4,-0.4703 -7e-4,-0.4703 -0.004,-2.8503 0.004,-1.047 0.007,-2.0939 0.0108,-3.1409 3e-4,-1.1125 2e-4,-2.225 -4e-4,-3.3375 -3e-4,-3.0694 0.006,-6.1388 0.0126,-9.2082 0.006,-3.3226 0.007,-6.6452 0.008,-9.9678 0.003,-5.8013 0.009,-11.6027 0.018,-17.4041 0.0127,-8.5384 0.0192,-17.0769 0.024,-25.6154 0.13219,-114.09723 0.18713,-228.19458 -0.4399,-342.2906 -0.009,-1.576 -0.0183,-3.1519 -0.0274,-4.7279 -0.1458,-25.3013 -0.3033,-50.6025 -0.4817,-75.9036 -3.35595,-4.195631 -6.77625,-8.33771 -10.3672,-12.334 C 613.23816,76.56348 593.23659,60.236811 579.2089,51.361233 569.36893,43.390844 546.38062,35.542217 514.1413,30.3879 490.24376,26.797525 465.83889,26.793003 436.0738,26.818 c -5.7752,0.0044 -11.5503,-0.003 -17.3255,-0.0105 -11.9608,-0.0151 -23.9216,-0.0169 -35.8824,-0.0144 -9.2345,0.0018 -18.4691,0 -27.7037,-0.0043 l -3.9971,-0.0018 -6.0249,-0.0027 C 248.46742,26.824391 151.79451,26.652202 55.1218,26.747 48.8413,26.7536 42.561,26.752 36.2806,26.7384 c -4.699,-0.0093 -9.3978,-0.0027 -14.0968,0.0098 -1.8931,0.0027 -3.7863,3e-4 -5.6794,-0.0077 -13.5952,-0.0536 -26.4493,0.7685 -39.0001,6.511 z m -85.25,109.3125 c -0.2381,0.5004 -0.4762,1.0008 -0.7215,1.5164 -4.4405,10.1158 -4.1902,20.6572 -4.158,31.47 -0.002,1.6708 -0.006,3.3416 -0.01,5.0124 -0.009,4.5926 -0.005,9.1851 10e-4,13.7777 0.004,4.4803 -0.002,8.9606 -0.007,13.4409 -0.0108,9.2722 -0.0122,18.5444 -0.008,27.8167 0.004,9.3938 0.003,18.7876 -0.002,28.1814 -4e-4,0.5937 -7e-4,1.1875 -10e-4,1.7993 -0.001,2.4184 -0.003,4.8368 -0.004,7.2553 0.18289,249.71359 -0.2125,499.42748 -0.0929,749.1411 0.001,2.4118 0.002,4.8237 0.004,7.2355 3e-4,0.5919 5e-4,1.1838 8e-4,1.7937 0.004,9.3671 -0.001,18.7341 -0.0113,28.1012 -0.01,9.2138 -0.008,18.4275 0.004,27.6412 0.007,4.9274 0.008,9.8546 -0.004,14.7819 -0.0106,4.485 -0.007,8.9697 0.007,13.4546 0.003,1.61 4e-4,3.2201 -0.007,4.8301 -0.0679,14.7393 2.4903,27.8276 9.7965,40.8209 7.0458,11.0853 17.49,18.841 28.9649,24.9922 8.003042,3.3493 5.382199,2.4279 11.625,3.5 1.5194,0.1576 1.5194,0.1576 3.5175,0.2038 0.7566,0.02 1.5131,0.039 2.2926,0.059 0.4185,0.01 0.4185,0.01 2.5365,0.05 0.8778,0.021 1.7555,0.041 2.6599,0.062 2.4307,0.055 4.8614,0.1047 7.2922,0.1513 1.5482,0.03 3.0963,0.062 4.6445,0.093 161.45679,0.64 373.21533,0.7548 512.9619,0.2481 26.66396,0 82.97454,-3.2924 112.0949,18.1196 7.68244,4.8832 11.16714,10.8046 16.6718,16.6328 3.64012,3.7349 8.16527,5.4142 12.9882,6.8674 13.32775,2.8101 26.53918,3.9879 40.501,2.3372 10.18062,-1.1623 16.58602,-3.3489 22.56235,-9.9621 2.88659,-3.4449 9.00774,-10.5928 17.0533,-16.3723 9.14382,-5.4392 24.76032,-9.7764 36.15555,-11.5905 8.33099,-1.7794 18.25438,-2.7299 24.1303,-3.4159 5.8422,-0.2331 11.6356,-0.6374 17.4508,-1.2435 12.0494,-1.2386 23.9946,-1.5395 36.1028,-1.4948 2.7851,0.01 5.5701,0 8.3552,0 4.8562,0 9.7123,0 14.5685,0.012 7.2213,0.014 14.4427,0.017 21.6641,0.018 12.1571,10e-4 24.3142,0.011 36.4714,0.026 12.0309,0.015 24.0618,0.026 36.0928,0.03 0.3754,10e-5 0.3754,10e-5 2.2751,8e-4 h 11.4412 c 156.3488,0.058 17.62045,0.04 217.0063,0.137 0.3871,2e-4 0.3871,2e-4 2.3462,0 6.9653,0 13.9306,0.01 20.8959,0.01 17.3501,0.01 34.7002,0.018 52.0503,0.036 12.0823,0.013 24.1647,0.022 36.247,0.028 7.1715,0 14.3431,0.01 21.5146,0.021 4.7961,0.01 9.5923,0.01 14.3884,0.01 2.7283,2e-4 5.4566,0 8.1849,0.01 31.454,0.07 31.454,0.07 39.882,-4.1135 0.474,-0.2296 0.9481,-0.4592 1.4365,-0.6958 6.1262,-2.999 11.9301,-6.2852 17.3135,-10.4917 0.4181,-0.3206 0.8362,-0.6411 1.2671,-0.9714 1.1547,-0.9466 1.1547,-0.9466 2.9829,-2.8411 4.4069,-4.9318 5.9348,-6.6375 10,-14 2.2137,-4.7217 1.3103,-2.3826 3,-9 2.0901,-6.8586 3.1584,-12.6253 3.1265,-19.3922 0,-2.2953 7e-4,-4.5905 0,-6.8858 0,-1.6561 0,-3.3122 0.01,-4.9683 0,-4.5937 0,-9.1874 7e-4,-13.7811 v -13.4059 c 0.01,-9.2579 0.01,-18.5158 0.01,-27.7737 0,-9.3879 -10e-5,-18.7758 0,-28.1637 10e-5,-0.296 10e-5,-0.296 7e-4,-1.7939 9e-4,-2.4109 0,-4.8218 0,-7.2327 0.01,-25.1816 0.013,-50.3631 0.014,-75.5447 10e-5,-2.7127 2e-4,-5.4254 2e-4,-8.1381 0,-0.6731 10e-5,-1.3463 10e-5,-2.0398 4e-4,-14.9032 0,-29.8064 0.01,-44.7095 10e-4,-6.1329 0,-12.2658 0,-18.3987 10e-5,-0.6776 2e-4,-1.3552 3e-4,-2.0533 0.01,-38.8445 0.01,-77.6891 0.01,-116.5336 v -4.3635 l -3e-4,-19.7015 c 0,-2.9286 -1e-4,-5.8572 -1e-4,-8.7858 0,-1.4658 0,-2.9316 -10e-5,-4.3974 -0.042,-147.15727 0.1236,-294.31463 0.057,-441.4719 -9e-4,-3.0144 0,-6.0287 0,-9.043 -2e-4,-0.5909 -3e-4,-1.1818 -5e-4,-1.7906 0,-9.3596 0,-18.7192 0.01,-28.0788 0.01,-9.2017 0.01,-18.4033 0,-27.6049 v -14.7692 c 0.01,-4.4777 0.01,-8.9552 0,-13.4329 0,-1.6108 -10e-5,-3.2216 0.01,-4.8323 -0.4772,-27.07086 -0.8319,-31.85249 -13.6846,-46.23112 -2.0104,-2.31056 -4.6253,-3.69703 -7.5722,-4.68208 4e-4,0.8146 9e-4,1.6291 0,2.4684 0.016,27.8915 0.031,55.7829 0.046,83.6744 3e-4,0.5619 6e-4,1.1238 9e-4,1.7028 0.6393,1203.1036 -0.5883,-865.74773 0.155,415.9126 4e-4,0.7042 8e-4,1.4084 0,2.134 0.01,11.3539 0.014,22.7078 0.02,34.0617 0.02,32.7095 0.038,65.419 0.046,98.1285 2e-4,0.6729 3e-4,1.3458 5e-4,2.0391 0,14.7729 0.01,29.5458 0.01,44.3187 8e-4,5.9445 0,11.8889 0,17.8334 10e-5,0.6506 2e-4,1.3011 3e-4,1.9715 0,20.949 0.016,41.8981 0.034,62.8472 0.018,21.1093 0.026,42.2187 0.022,63.328 -6e-4,2.9198 0,5.8396 0,8.7593 -10e-5,0.5724 -2e-4,1.1447 -3e-4,1.7344 0,9.048 0.01,18.096 0.021,27.144 0.013,8.9059 0.014,17.8118 0.01,26.7177 0,4.7606 0,9.521 0.01,14.2816 0.012,4.3372 0.01,8.6742 0,13.0114 0,1.5532 7e-4,3.1065 0.01,4.6597 0.093,17.8817 -3.3294,34.7522 -12.1317,50.4591 -3.7846,6.4874 -8.2161,12.2535 -13.25,17.8125 -0.3515,0.3953 -0.7029,0.7905 -1.065,1.1978 -10.2898,11.44 -21.117,19.5732 -35.6168,24.5688 -9.8799,3.1917 -21.5593,5.3873 -31.9672,5.3665 -0.8622,0 -1.7243,0 -2.6127,0.01 -2.3903,0.01 -4.7805,0.01 -7.1708,0 -2.6019,-10e-5 -5.2039,0.01 -7.8058,0.011 -4.5598,0.01 -9.1195,0.012 -13.6793,0.014 -6.7816,0 -13.5632,0.012 -20.3448,0.021 -11.4143,0.016 -22.8286,0.029 -34.243,0.039 -64.4919,0.055 9.4787,-3e-4 -122.8967,0.16 h -2.2997 c -49.853,0.062 -99.70608,0.096 -149.5591,0.1748 -3.5786,0.01 -7.1572,0.011 -10.7358,0.017 h -2.134 c -11.2885,0.018 -22.577,0.028 -33.8655,0.035 -11.3721,0.01 -22.7441,0.022 -34.1161,0.043 -6.1499,0.011 -12.2997,0.02 -18.4495,0.019 -57.0068,0 -57.0068,0 -80.0007,4.1773 -0.9933,0.1741 -1.9867,0.348 -2.98,0.5217 -22.3871,3.9848 -43.4552,10.3161 -61.4575,24.6033 -0.7825,0.6046 -1.565,1.2091 -2.3711,1.832 -8.6707,7.1379 -15.0053,16.5021 -19.1602,26.9046 -1.4175,3.7981 -2.3913,7.6337 -3.1094,11.6189 -2.10148,4.105 -6.40262,2.9875 -10.12021,3.1086 -5.53629,-0.1148 -6.2811,-0.4728 -8.23909,-4.464 -0.625,-2.2969 -0.625,-2.2969 -1,-4.75 -1.6685,-9.1296 -5.1484,-16.1095 -11,-23.25 -9.7996,-11.4834 -23.1742,-21.3426 -37.375,-26.5625 -0.5131,-0.1953 -1.0261,-0.3906 -1.5547,-0.5918 -1.6839,-0.6335 -3.3762,-1.24 -5.0703,-1.8457 -0.6235,-0.235 -1.247,-0.47 -1.8894,-0.7122 -6.5741,-2.3629 -13.2939,-3.6872 -20.1431,-4.9677 -1.9771,-0.3726 -3.9496,-0.7646 -5.9226,-1.158 -19.6185,-3.7802 -39.5009,-4.4632 -59.4262,-4.4204 -2.1391,0 -4.2783,-0.01 -6.4174,-0.011 -4.5999,-0.01 -9.1997,-0.01 -13.7996,-0.01 -6.8402,0.01 -13.6805,-8e-4 -20.5208,-0.01 -11.5172,-0.014 -23.0344,-0.019 -34.5516,-0.02 -15.7299,0 -31.4598,-0.016 -47.1896,-0.035 -115.09563,-0.3171 -230.19332,0.078 -345.2888,-0.248 -2.5834,-0.01 -5.1667,-0.011 -7.7502,-8e-4 -14.7698,0.045 -27.7567,-1.3444 -41.6632,-6.5827 -0.4015,-0.1506 -0.4015,-0.1506 -2.4334,-0.9126 -37.347798,-14.5417 -47.772662,-33.9345 -54.6448,-58.5249 -4.783353,-16.3286 -4.639727,-33.2954 -4.6163,-50.1231 0.0051,-4.7401 -0.0014,-9.4802 -0.0065,-14.2204 -0.0072,-8.3164 -0.007,-16.6329 -0.0019,-24.9494 0.133846,-217.20558 -0.124881,-472.30942 -7e-4,-746.527 l 0.0033,-6.8609 c 2e-4,-0.5613 5e-4,-1.1226 8e-4,-1.7008 0.0039,-8.9032 0.0011,-17.8063 -0.0044,-26.7094 -0.0052,-8.7451 -0.0033,-17.4901 0.0061,-26.2352 0.0047,-4.682 0.0063,-9.3638 -9e-4,-14.0457 -0.0064,-4.253 -0.0037,-8.5058 0.0064,-12.7587 0.002,-1.535 7e-4,-3.0701 -0.0044,-4.6051 -0.0064,-2.0743 -5e-4,-4.1482 0.0085,-6.2224 -0.0048,-0.5986 -0.0096,-1.1973 -0.0145,-1.8141 -0.02902,-13.84091 0.314158,-5.00691 -0.559946,-17.55511 -0.265024,-4.22276 -0.202365,-4.89835 -2.174854,-7.04769 -4.271168,0.86986 -7.53319,6.02397 -12.3823,15.4761 z"
         fill="currentColor"
         transform="translate(182.37073,48.8735)"
         id="path1"
         style="fill:#1a1f2e;fill-opacity:1;stroke:none" /><path
         d="m 0,0 c 4.8937808,0.24516509 26.577428,1.805072 43.938,10.6448 6.98682,3.311076 12.646537,8.538465 18.5386,13.4021 12.8278,10.747 22.4503,25.2797 28.1992,40.9375 5.9607,17.3971 6.5028,38.9857 3.0156,57.0312 -0.2272,0.9956 -0.4579,1.9903 -0.6914,2.9844 -0.0671,0.302 -0.0671,0.302 -0.4067,1.8301 -7.953296,35.47669 -30.951214,73.88986 -51.3833,106.2529 -16.560852,26.23781 -36.0448433,52.24423 -41.62329052,55.98058 -1.51224528,1.07298 -5.25338318,0.88055 -6.98266948,-0.3815 -7.671168,-7.01112 -28.949283,-37.99265 -32.151221,-41.55708 -4.330218,-5.95147 -6.91027,-9.76621 -18.49555,-28.80336 C -63.269269,210.81978 -66.047347,203.71595 -71.375,196.3125 -79.951733,180.53177 -89.393653,164.80421 -95.125,147.625 -96,145 -96,145 -96.9905,143.5359 -100.66064,134.29077 -101.773,127.96488 -104,118 c -0.1337,-1.5178 -0.1337,-1.5178 -0.1453,-3.3164 -0.006,-0.6741 -0.0127,-1.3482 -0.0193,-2.0427 -0.001,-0.7271 -0.002,-1.4543 -0.003,-2.2034 -0.003,-0.7471 -0.007,-1.4942 -0.0101,-2.2639 -0.005,-1.5803 -0.007,-3.1607 -0.007,-4.741 -0.002,-2.423 -0.0204,-4.8456 -0.0393,-7.2685 -0.003,-1.5339 -0.005,-3.0677 -0.006,-4.6016 -0.007,-0.7271 -0.0143,-1.4542 -0.0217,-2.2034 -0.17472,-1.689444 0.76268,-8.784904 2.00542,-13.62886 6.272555,-23.151897 25.998773,-45.657787 31.03728,-49.73314 2.563439,-2.146641 5.14644,-4.269957 7.707,-6.42 C -56.648885,14.45266 -49.692978,11.262215 -41.125,7.5 -32.691625,3.9559313 -8.0268336,-0.41300624 0,0 Z m -29,53 c -7.6213,4.6467 -14.4719,10.183 -19,18 -5.2675,10.7938 -6.6721,20.8189 -6.188,32.7646 0.4304,5.1179 2.1245,9.5764 4.188,14.2354 0.2771,0.7116 0.5543,1.4231 0.8398,2.1562 2.6458,6.1451 7.0317,11.5746 12.1602,15.8438 3.9791,2.7334 8.2178,5.0119 12.5171,7.1973 C -23,144 -23,144 -21.4219,145.0759 c 1.7205,1.1181 3.0174,1.2837 5.0469,1.4866 1.1284,0.1166 2.2551,0.2566 3.375,0.4375 l 1,1 c 2.6993,0.2509 5.4154,0.1852 8.125,0.1875 0.7477,0.0122 1.4953,0.0245 2.2656,0.0371 6.8993,0.018 12.4389,-1.6369 18.7969,-4.2246 0.4093,-0.165 0.4093,-0.165 2.4805,-1 C 33.378313,137.51131 44.43424,110.52242 46,92 45.9832,91.2279 45.9665,90.4557 45.9492,89.6602 45.5573,83.2882 43.0775,78.5099 40,73 39.7138,72.3941 39.4277,71.7883 39.1328,71.1641 35.7911,64.3852 29.7894,58.6678 23.6641,54.3555 21.4836,53.0893 19.3099,52.0088 17,51 16.3284,50.6945 15.6568,50.389 14.9648,50.0742 1.5098,44.7676 -16.484,45.6863 -29,53 Z"
         fill="currentColor"
         transform="translate(316,162)"
         id="path2"
         style="fill:#1a1f2e;fill-opacity:1;stroke:none" /><path
         d="m 0,0 c 0.8923,-0.001 1.7845,-0.0019 2.7039,-0.003 0.971,0.0041 1.942,0.0082 2.9424,0.0124 1.0492,8e-4 2.0983,0.0012 3.1475,0.0012 2.877,0.0014 5.7539,0.009 8.6309,0.0178 3.105,0.0085 6.21,0.0111 9.315,0.0146 7.4923,0.0099 14.9845,0.0295 22.4768,0.0503 3.5285,0.0096 7.057,0.0182 10.5855,0.0269 40.37307,0.16326794 80.74659,0.16815376 121.1197,0.3123 7.0659,0.0258 14.1317,0.0449 21.1976,0.0474 6.0136,0.0022 12.027,0.0179 18.0405,0.0514 3.0689,0.0166 6.1375,0.0268 9.2064,0.0196 2.8086,-0.0063 5.6166,0.0056 8.425,0.0323 1.499,0.0094 2.998,-9e-4 4.4969,-0.0118 6.2932,0.0854 6.2932,0.0854 8.6705,1.3803 1.1402,1.0357 1.8455,5.7919 0.4705,8.1669 l -2,2 c -1.9132,0.2507 -1.9132,0.2507 -4.301,0.2517 -0.9084,0.0052 -1.8169,0.0104 -2.7528,0.0158 -1.0146,-0.0043 -2.0292,-0.0088 -3.0438,-0.0135 -1.0728,0.0023 -2.1455,0.0054 -3.2183,0.0094 -2.9561,0.0084 -5.912,0.0042 -8.8681,-0.0019 -3.1847,-0.0046 -6.3695,0.0024 -9.5543,0.0079 -6.2422,0.0089 -12.4843,0.007 -18.7265,0.0012 -5.0715,-0.0045 -10.1429,-0.0051 -15.2144,-0.003 -0.7207,3e-4 -1.4415,6e-4 -2.1841,10e-4 -1.464,6e-4 -2.928,0.0013 -4.392,0.0019 -39.22976,-0.02439 -78.459536,0.009 -117.6893,-10e-4 -1.4587,-6e-4 -2.9174,-0.0012 -4.3762,-0.0019 -0.7178,-3e-4 -1.4356,-6e-4 -2.1751,-9e-4 -5.0676,-0.0017 -10.1352,0.0012 -15.2028,0.0059 -6.1725,0.0056 -12.345,0.0041 -18.5174,-0.0066 -3.1517,-0.0052 -6.30343,0.03798 -9.4548,-7e-4 C 2.125101,12.290208 -3.4009234,12.799845 -10.5709,12.1186 -13.690106,9.4120082 -13.773815,5.8616427 -12.475525,2.4509769 -8.3120513,-0.09171851 -5.2486206,0.09473599 0,0 Z"
         fill="currentColor"
         transform="translate(468.57088,313.8814)"
         id="path3"
         style="fill:#1a1f2e;fill-opacity:1;stroke:none" /><path
         d="m 0,0 c 2.132,-0.1135 4.2449,-0.1223 6.38,-0.1029 0.8248,-0.0044 1.6496,-0.0087 2.4994,-0.0132 2.7878,-0.011 5.5752,-5e-4 8.3631,0.0098 2.0093,-0.0035 4.0185,-0.0081 6.0277,-0.0142 4.3808,-0.0109 8.7616,-0.0105 13.1424,-0.0029 6.5143,0.0113 13.0285,0.0056 19.5429,-0.0036 11.6329,-0.0158 23.2657,-0.0144 34.8986,-0.0058 10.18,0.0076 20.3599,0.0096 30.5399,0.006 0.3372,-2e-4 0.3372,-2e-4 2.044,-7e-4 2.7378,-0.001 5.4757,-0.0019 8.2135,-0.0029 25.6982,-0.0092 51.3964,-9e-4 77.0947,0.0153 22.8457,0.0142 45.6913,0.0129 68.537,-0.0014 25.6503,-0.0161 51.3007,-0.0224 76.951,-0.0132 2.733,0.001 5.4659,0.0019 8.1989,0.0029 0.3365,10e-5 0.3365,10e-5 2.0392,7e-4 10.1751,0.0034 20.3502,-6e-4 30.5253,-0.0082 11.5663,-0.0085 23.1324,-0.0064 34.6987,0.0099 6.4781,0.0088 12.9561,0.0093 19.4343,-0.002 4.3219,-0.0067 8.6437,-0.0026 12.9655,0.0105 2.4661,0.0072 4.9318,0.0079 7.3978,-0.0012 2.6513,-0.009 5.3019,2e-4 7.9532,0.0142 0.7726,-0.007 1.5452,-0.0141 2.3412,-0.0213 1.9232,0.0205 3.7308,0.0687 5.6252,0.3988 1.9889,1.4277 1.9889,1.4277 3,3 0.1446,1.5352 0.1446,1.5352 -0.1875,3.0625 -0.0966,0.5066 -0.1933,1.0132 -0.2929,1.5352 -0.5196,1.4023 -0.5196,1.4023 -2.5196,3.4023 -1.5312,0.2512 -1.5312,0.2512 -3.3728,0.253 -0.3515,0.0028 -0.3515,0.0028 -2.1303,0.0167 -0.3882,-0.002 -0.3882,-0.002 -2.3531,-0.0124 -0.4125,0.0017 -0.4125,0.0017 -2.5001,0.0106 -2.7946,0.0094 -5.589,0.0044 -8.3836,-5e-4 -2.0118,0.0038 -4.0236,0.0083 -6.0354,0.0138 -4.3895,0.0103 -8.7789,0.0131 -13.1684,0.0111 -6.5274,-0.0031 -13.0546,0.0052 -19.5819,0.0157 -12.3345,0.0194 -24.6691,0.025 -37.0036,0.0261 -9.5232,9e-4 -19.0464,0.005 -28.5696,0.0114 L 354.1,11.6255 c -0.6807,4e-4 -1.3614,9e-4 -2.0627,0.0013 -19.1542,0.0123 -38.3085,0.0202 -57.4627,0.0193 -0.7226,0 -1.4452,0 -2.1897,-10e-5 -3.6627,-1e-4 -7.3254,-3e-4 -10.9881,-5e-4 -0.7275,-10e-5 -1.4549,-10e-5 -2.2044,-2e-4 -1.4711,0 -2.9423,-10e-5 -4.4134,-2e-4 -22.8925,-0.0012 -45.785,0.0138 -68.6775,0.0411 -25.7016,0.0307 -51.4032,0.048 -77.1049,0.0461 l -8.2166,-3e-4 c -0.3372,0 -0.3372,0 -2.0437,-10e-5 -10.8689,0 -21.7377,0.0128 -32.6065,0.03 C 75.2124,11.7788 64.295,11.7808 53.3777,11.7676 46.8863,11.7602 40.3953,11.764 33.904,11.7835 29.572,11.7955 25.2402,11.793 20.9083,11.7786 18.4372,11.7708 15.9667,11.7716 13.4957,11.7855 10.8372,11.7995 8.1799,11.7891 5.5214,11.7724 4.7496,11.7823 3.9777,11.7923 3.1825,11.8025 1.1767,11.7756 -0.6286,11.7113 -2.5865,11.2746 -4.3635,10.0907 -4.7161,3.4689 -3.5101,1.6615 -1.5865,0.2746 -1.5865,0.2746 0,0 Z"
         fill="currentColor"
         transform="translate(928.58647,314.72539)"
         id="path4"
         style="fill:#1a1f2e;fill-opacity:1;stroke:none" /><path
         d="m 30.8379,15.4531 c 4.7741,2.4669 11.63936,6.025095 17.01776,6.430995 12.140749,3.27845 17.208,8.757109 12.45884,19.842505 -9.935575,13.460567 -27.934452,3.456237 -40.375,-1.293 -11.5119094,-5.850526 -28.9460809,-9.997381 -36.75,-21.6445 -3.304929,-8.261278 1.194159,-15.3103357 8.75,-18.25 12.8208746,-1.39667 27.739384,9.0710995 38.8984,14.914 z"
         fill="currentColor"
         transform="translate(354.06055,455.46094)"
         id="path5"
         style="fill:#1a1f2e;fill-opacity:1;stroke:none" /><path
         d="m 9.5869,0.0247 c 15.689802,-0.01883375 31.434656,-0.18582119 46.8662,3.0183 5.334828,3.3973048 7.034355,7.460471 5.8203,17.1875 -2.229603,6.421836 -7.148345,8.113367 -11,9 -12.193834,0.21416 -15.700754,-2.693264 -52.1713,-1.8372 -12.0039,0.2215 -12.0039,0.2215 -16.6033,-2.3193 -8.808908,-6.063924 -5.729534,-15.8784539 -4.2254,-17.8435 7.304162,-9.4683384 20.6133407,-7.25871035 31.3135,-7.2058 z"
         fill="currentColor"
         transform="translate(471.72656,483.76953)"
         id="path6"
         style="fill:#1a1f2e;fill-opacity:1;stroke:none" /><path
         d="m 0,0 c 12.766935,1.217594 34.435747,20.056736 40.875,26.1875 6.528485,6.067768 13.517711,11.634623 17,20 1.015894,7.727701 -1.997004,11.963202 -7.8125,16.375 C 43.879299,64.454919 38.517226,63.580571 33.875,59.1875 24.361372,47.365718 12.162902,37.384012 -0.9727,29.7852 -8.4970968,26.611302 -13.139462,22.761672 -14.550399,14.69516 -15.256014,8.6568934 -8.9321244,0.80346986 0,0 Z"
         fill="currentColor"
         transform="translate(578.125,502.8125)"
         id="path7"
         style="fill:#1a1f2e;fill-opacity:1;stroke:none" /><path
         d="m 0,0 c 0.8254,-0.0055 1.6508,-0.011 2.5013,-0.0167 2.7781,-0.0137 5.5553,0.0013 8.3333,0.0161 2.0069,-0.0039 4.0137,-0.0094 6.0205,-0.0168 4.3694,-0.0129 8.7387,-0.0109 13.1081,8e-4 6.4973,0.0173 12.9944,0.0119 19.4917,0.0018 11.6029,-0.0172 23.2058,-0.0116 34.8087,0.0034 10.1525,0.013 20.305,0.0182 30.4575,0.0156 0.673,-10e-5 1.346,-3e-4 2.0394,-4e-4 2.7317,-7e-4 5.4634,-0.0014 8.1952,-0.0022 25.6325,-0.007 51.2649,0.0085 76.8974,0.0347 22.7856,0.0231 45.5711,0.0285 68.3567,0.0182 5.8355,-0.0026 11.6709,-0.0052 17.5064,-0.0076 0.7183,-3e-4 1.4367,-6e-4 2.1768,-9e-4 19.0271,-0.0076 38.0541,-0.0012 57.0812,0.0096 2.0465,0.0012 4.0931,0.0023 6.1396,0.0035 1.3577,7e-4 2.7154,0.0015 4.0731,0.0022 10.1489,0.0057 20.2977,0.0044 30.4466,-2e-4 11.5351,-0.0051 23.0701,7e-4 34.6052,0.0209 6.4604,0.011 12.9206,0.0138 19.381,0.0047 4.31,-0.0052 8.6199,5e-4 12.9298,0.0151 2.4592,0.008 4.9181,0.0096 7.3773,0.0014 2.6439,-0.0081 5.2872,0.0021 7.9311,0.0171 0.7704,-0.0068 1.5408,-0.0135 2.3345,-0.0205 1.9175,0.0212 3.7215,0.0745 5.6107,0.4008 1.9731,1.3675 1.9731,1.3675 3,3 0.375,2.5 0.375,2.5 0,5 -1.0259,1.6316 -1.0259,1.6316 -3,3 -2.6488,0.4603 -5.2781,0.4119 -7.9608,0.3931 -0.4121,0.003 -0.4121,0.003 -2.4976,0.0183 -2.7859,0.0168 -5.5712,0.012 -8.3571,0.0075 -2.0078,0.0076 -4.0156,0.0163 -6.0234,0.0265 -4.3778,0.0199 -8.7555,0.0285 -13.1333,0.0299 -6.5099,0.0021 -13.0196,0.0213 -19.5295,0.0439 -11.6255,0.0397 -23.251,0.0622 -34.8765,0.0775 -10.1748,0.0134 -20.3496,0.0324 -30.5244,0.0569 -0.6742,0.0016 -1.3484,0.0032 -2.0431,0.0049 -2.7367,0.0066 -5.4734,0.0131 -8.2101,0.0198 -25.6887,0.062 -51.3774,0.1065 -77.0662,0.1432 -22.8323,0.0327 -45.6645,0.081 -68.4968,0.1423 -25.6379,0.0689 -51.2758,0.128 -76.9137,0.1714 -2.7324,0.0047 -5.4649,0.0093 -8.1973,0.014 -0.6728,0.0012 -1.3456,0.0023 -2.0388,0.0035 -10.1681,0.0175 -20.336,0.0424 -30.504,0.071 -11.5611,0.0324 -23.1221,0.054 -34.6831,0.0615 -6.4733,0.0045 -12.9465,0.0172 -19.4198,0.0419 -4.3211,0.0157 -8.6422,0.0204 -12.9634,0.0162 -2.464,-0.0021 -4.9277,0.0022 -7.3917,0.0164 C 4.32,12.8749 1.6681,12.871 -0.9844,12.8625 -1.7517,12.8711 -2.519,12.8797 -3.3096,12.8886 -8.3925,12.845 -8.3925,12.845 -10.8131,11.8085 -12.2102,10.978 -12.610571,6.5511853 -11.798071,2.8474379 -8.0552695,0.36044947 -4.7933695,0.3718821 0,0 Z"
         fill="currentColor"
         transform="translate(936.1969,542.49943)"
         id="path8"
         style="fill:#1a1f2e;fill-opacity:1;stroke:none" /><path
         d="m 0,0 c 1.1739,-0.0019 2.3478,-0.0042 3.5218,-0.0069 3.2125,-0.0061 6.4251,-0.006 9.6377,-0.0048 3.4697,2e-4 6.9393,-0.0053 10.409,-0.01 6.7913,-0.0083 13.5826,-0.0111 20.3739,-0.0116 5.519,-5e-4 11.0379,-0.0026 16.5569,-0.0057 15.6491,-0.0088 31.2983,-0.0135 46.9475,-0.0127 0.843,0 1.6861,1e-4 2.5546,1e-4 0.8441,1e-4 1.6882,1e-4 2.5578,1e-4 13.6923,4e-4 27.3846,-0.0091 41.0768,-0.0232 14.061,-0.0144 28.122,-0.0213 42.183,-0.0204 7.8936,3e-4 15.7872,-0.0025 23.6808,-0.0132 6.7172,-0.0091 13.4344,-0.0113 20.1516,-0.0045 3.4275,0.0033 6.8548,0.0033 10.2823,-0.0054 3.1371,-0.0078 6.2741,-0.0064 9.4112,0.0023 1.1351,0.0016 2.2703,-3e-4 3.4054,-0.0058 1.5431,-0.0071 3.0857,-0.0018 4.6288,0.0065 0.4285,-1e-4 0.4285,-1e-4 2.5971,-6e-4 2.7941,0.2864 4.9148,1.0194 7.4339,2.2495 1,1.8125 1,1.8125 1,4 -1.3846,3.4218 -1.3846,3.4218 -3,5 -2.3845,0.7803 -4.7202,0.7181 -7.2129,0.7026 -0.7502,0.0149 -1.5004,0.0297 -2.2733,0.045 -2.557,0.0435 -5.1127,0.0503 -7.67,0.0571 -1.8649,0.0225 -3.7298,0.0468 -5.5946,0.0727 -5.2679,0.0643 -10.5353,0.0923 -15.8035,0.1101 -3.5226,0.0119 -7.0452,0.0318 -10.5677,0.0522 -18.383,0.1026 -36.7657,0.1068 -55.1489,0.0876 -2.2414,-0.0023 -4.4828,-0.0043 -6.7242,-0.0061 -18.4523,-0.0156 -36.9044,-0.0464 -55.3566,-0.0907 -7.4977,-0.0179 -14.9953,-0.0335 -22.493,-0.0423 -0.36,-4e-4 -0.36,-4e-4 -2.1821,-0.0025 -0.3582,-4e-4 -0.3582,-4e-4 -2.1711,-0.0026 C 68.5615,12.1009 54.9111,12.0683 41.2606,11.9984 34.9747,11.9665 28.689,11.942 22.403,11.9387 17.1192,11.9358 11.8357,11.9161 6.552,11.8734 3.8791,11.8523 1.2067,11.8391 -1.4664,11.8475 c -2.8743,0.0088 -5.7474,-0.0207 -8.6215,-0.0544 -0.8423,0.0087 -1.6846,0.0173 -2.5525,0.0262 -2.1043,-0.0422 -3.9278,-0.1011 -5.9495,-0.6856 -1.5587,-2.3693 -1.5587,-2.3693 -2,-5 0.4375,-2.75 0.4375,-2.75 2,-5 C -12.4708,-0.2128 -6.2352,-0.0094 0,0 Z"
         fill="currentColor"
         transform="translate(246.58987,546.86629)"
         id="path9"
         style="fill:#1a1f2e;fill-opacity:1;stroke:none" /><path
         d="M 0.89920163,1.5286428 C 11.09286,5.862351 22.818907,26.857542 42,41.1484 49.889597,46.261373 53.003556,54.282521 47.3828,62.043 37.625924,72.557207 32.822021,72.468839 -1.0093,36.9878 -8.9738591,28.594261 -20.67472,20.299689 -15.8125,7.7734 -11.8399,2.2118 -6.290479,-0.75436049 0.89920163,1.5286428 Z"
         fill="currentColor"
         transform="translate(659.875,586.60156)"
         id="path10"
         style="fill:#1a1f2e;fill-opacity:1;stroke:none" /><path
         d="m 20.6719,1.168 c 13.197,0 13.197,0 17.0971,1.6479 2.0271,1.3643 3.215,2.946 4.5122,4.9966 1.1968,3.1878 1.6562,5.8138 1.3633,9.2109 -0.6385,2.7365 -1.5512,4.7042 -3.3125,6.8907 -2.7422,2.833 -2.7422,2.833 -4.5156,3.7578 -5.5465,1.5363 -11.7451,0.5691 -17.3867,-0.0469 -9.919533,-1.021781 -25.4009448,-0.675379 -33.7149,0.0078 -9.303218,0.415395 -20.993048,4.201684 -26.5625,-5.5 -1.393915,-7.674647 -0.74229,-14.5272158 6.3555,-18.5937 4.7535,-2.255 10.0513,-1.944 15.207,-2.0313 1.549,-0.0368 3.0978,-0.0776 4.6465,-0.1226 C 3.2953519,2.0818967 4.7132843,0.85233316 20.6719,1.168 Z"
         fill="currentColor"
         transform="translate(1007.8477,651.86719)"
         id="path11"
         style="fill:#1a1f2e;fill-opacity:1;stroke:none" /><path
         d="m 0,0 c 16.463125,5.8012259 32.092977,14.287893 49.5898,15.0156 3.9671,0.2522 7.5699,0.4945 11.0118,2.6367 1.5081,1.2541 2.7527,2.5158 3.6328,4.2813 2.345652,7.587305 0.599088,13.787718 -5.5196,18.6445 -4.915894,2.806038 -10.1235,1.832811 -15.4145,1.0811 C 12.427802,37.071594 -11.002687,25.914599 -16.1914,20.6406 -17.9093,17.4012 -17.8787,14.66 -17.7617,11.0508 -16.808489,4.3933483 -7.1772948,-1.7514893 0,0 Z"
         fill="currentColor"
         transform="translate(751.28516,659.42187)"
         id="path12"
         style="fill:#1a1f2e;fill-opacity:1;stroke:none" /><path
         d="m 0,0 c 4.8451379,0.47870612 13.724365,4.9161159 10.5312,19.0234 -1.5927,2.9982 -4.0096,4.703 -6.777,6.4966 -3.088,1.649 -6.3293,2.2854 -9.7386,2.9761 -0.7594,0.1641 -1.5188,0.3281 -2.3012,0.4972 -2.4463,0.5239 -4.8963,1.028 -7.3472,1.5301 -1.682,0.3532 -3.3639,0.7067 -5.0457,1.0606 -35.6503,7.4302 -35.6503,7.4302 -45.0168,5.2519 -2.6619,-1.5827 -4.4623,-3.2163 -6.3672,-5.6484 -1.0741,-1.9619 -1.3187,-3.3131 -1.3828,-5.5391 0.17448,-4.649744 3.588955,-9.38439 4.4922,-10.5586 2.405,-2.0997 4.6589,-3.3564 7.8105,-4.0239 15.963643,-2.9320282 32.861835,-2.1465588 49.9903,-9.605 C -7.576,-0.2067 -3.877,-0.1318 0,0 Z"
         fill="currentColor"
         transform="translate(922.00781,663.53906)"
         id="path13"
         style="fill:#1a1f2e;fill-opacity:1;stroke:none" /><path
         d="m 12.6914,8.2227 c 7.6341,4.2411 14.1596,10.5925 20.5322,16.4897 2.3773,2.1987 4.7745,4.2832 7.3428,6.2603 2.3368,1.9316 3.8257,3.853 5.0313,6.6445 0.8534,2.9231 0.9896,5.6065 0.4687,8.6055 -3.032177,6.841797 -7.873083,10.691883 -15.19544,9.819779 C 23.600314,54.455297 11.006109,37.040574 -15.4177,23.7573 c -4.1936,-2.1618 -7.09,-4.4977 -9.8284,-8.4096 -1.84493,-5.702346 1.119809,-16.8152328 11.25,-19.125 10.6548793,-0.8301602 18.0091904,7.3369065 26.6875,12 z"
         fill="currentColor"
         transform="translate(1106.9336,674.77734)"
         id="path14"
         style="fill:#1a1f2e;fill-opacity:1;stroke:none" /><path
         d="m 0,0 c 2.9932,0.7008 5.4439,1.9279 7.7852,3.918 6.417548,7.174993 20.634215,44.42281 19.832,65.6679 -0.4867,2.55 -1.1303,3.9743 -2.707,6.0196 -2.0042,2.0413 -4.1072,3.2859 -6.75,4.375 -3.4027,0.5334 -6.5937,0.505 -10,0 C 6.1125,79.1196 4.8554,78.2344 3.2734,76.6836 -0.89999694,65.947621 1.502195,69.051106 -5.3438,44.0117 -6.3518227,38.2975 -7.7620585,32.947303 -10.8398,27.9805 -15.491241,16.953696 -15.50096,8.3483259 -5.6523,1.6055 -3.626,0.5396 -2.2963,-0.0244 0,0 Z"
         fill="currentColor"
         transform="translate(1172.8398,752.01953)"
         id="path15"
         style="fill:#1a1f2e;fill-opacity:1;stroke:none" /><path
         d="m 0,0 c 0.7372,-0.004 1.4744,-0.0079 2.2339,-0.012 2.4652,-0.0097 4.9298,0.0021 7.395,0.0139 1.7692,-0.0024 3.5385,-0.0061 5.3077,-0.0111 4.8015,-0.0094 9.6028,10e-5 14.4042,0.0134 4.5131,0.0114 9.0263,0.0077 13.5394,0.0058 8.9407,-0.0032 17.8813,0.0084 26.8219,0.028 8.6758,0.0191 17.3515,0.0261 26.0274,0.0205 9.4503,-0.006 18.9007,-0.0058 28.3511,0.0055 5.0017,0.006 10.0034,0.0097 15.0052,0.0071 4.6999,-0.0019 9.3996,0.0062 14.0995,0.022 1.7274,0.0043 3.4548,0.0051 5.1822,0.0023 2.3526,-0.0032 4.7048,0.0059 7.0573,0.0181 0.3441,-0.0019 0.3441,-0.0019 2.0855,-0.0114 2.6118,0.0242 4.5855,0.0602 6.9992,1.1048 0.3551,0.3852 0.7101,0.7704 1.0759,1.1673 0.5134,4.0218 0.5134,4.0218 0,6 -1.0718,1.5726 -1.0718,1.5726 -3,3 -2.4124,0.4542 -4.8015,0.4001 -7.25,0.3742 -0.3718,0.002 -0.3718,0.002 -2.2535,0.0121 -2.499,0.0096 -4.9975,-0.0022 -7.4965,-0.014 -1.7886,0.0025 -3.5773,0.0062 -5.3659,0.0111 -4.3582,0.0084 -8.7162,0.0029 -13.0743,-0.0093 -5.074,-0.0136 -10.148,-0.0119 -15.2221,-0.0098 C 112.8704,11.7417 103.8178,11.73 94.7651,11.7104 85.9786,11.6914 77.1922,11.6843 68.4057,11.6899 58.8404,11.696 49.275,11.6958 39.7097,11.6844 38.6899,11.6832 37.6701,11.682 36.6504,11.6808 36.3995,11.6805 36.3995,11.6805 35.1299,11.679 31.5921,11.6751 28.0543,11.6755 24.5166,11.6774 19.756,11.6793 14.9955,11.6712 10.2349,11.6553 8.4849,11.6511 6.735,11.6502 4.985,11.653 2.6017,11.6562 0.2187,11.6472 -2.1646,11.6349 c -0.6973,0.0038 -1.3947,0.0076 -2.1132,0.0115 -0.3191,-0.0029 -0.3191,-0.0029 -1.9337,-0.0177 -0.5501,-9e-4 -1.1002,-0.0017 -1.6669,-0.0026 -1.5362,-0.2519 -1.5362,-0.2519 -3.2051,-1.0842 -0.2197,-0.1927 -0.2197,-0.1927 -1.3311,-1.1677 -0.5,-2.9375 -0.5,-2.9375 -0.5937,-4.4648 0.1959,-0.5066 0.3918,-1.0132 0.5937,-1.5352 C -8.2861,0.2435 -5.086,-0.0549 0,0 Z"
         fill="currentColor"
         transform="translate(934.41458,782.62578)"
         id="path16"
         style="fill:#1a1f2e;fill-opacity:1;stroke:none" /><path
         d="M 0,0 C 0.2784,0.3713 0.2784,0.3713 1.6875,2.25 2,5 2,5 1.4411,6.3405 0.3929,7.8231 -0.5471,8.9009 -2,10 c -2.7049,0.7349 -5.3341,0.6661 -8.1235,0.6208 -0.4148,0.0032 -0.4148,0.0032 -2.514,0.0193 -2.7986,0.0153 -5.5958,-0.0052 -8.3944,-0.0254 -2.0191,0.0036 -4.0381,0.0092 -6.0572,0.0173 -4.3992,0.0134 -8.7981,0.0082 -13.1974,-0.0091 -6.5415,-0.0256 -13.0829,-0.0227 -19.6245,-0.0139 -11.0039,0.0139 -22.0077,0.0042 -33.0116,-0.0192 -10.8987,-0.0231 -21.7973,-0.0368 -32.696,-0.0375 -0.3387,-1e-4 -0.3387,-1e-4 -2.0526,-2e-4 -2.7495,-2e-4 -5.4989,-3e-4 -8.2483,-3e-4 -25.8023,-4e-4 -51.6044,-0.0275 -77.4066,-0.0682 -22.9398,-0.0362 -45.8796,-0.0553 -68.8194,-0.0581 -0.7295,-10e-5 -1.459,-10e-5 -2.2106,-2e-4 -2.2069,-3e-4 -4.4138,-6e-4 -6.6208,-9e-4 -2.931,-3e-4 -5.862,-7e-4 -8.793,-0.0011 -0.7232,-10e-5 -1.4464,-2e-4 -2.1915,-2e-4 -22.5783,-0.003 -45.1567,-0.0205 -67.735,-0.0405 -7.4964,-0.0066 -14.9928,-0.0123 -22.4892,-0.0152 -0.6758,-2e-4 -1.3516,-5e-4 -2.0478,-7e-4 -0.6745,-3e-4 -1.3489,-6e-4 -2.0438,-8e-4 -12.9703,-0.005 -25.9406,-0.0162 -38.9109,-0.0413 -6.505,-0.0125 -13.0099,-0.0195 -19.5149,-0.0187 -4.3385,0 -8.6769,-0.0073 -13.0154,-0.0206 -2.4762,-0.0074 -4.9524,-0.0105 -7.4286,-0.0071 -2.6605,0.0031 -5.3207,-0.0059 -7.9812,-0.0181 -0.7781,0.0038 -1.5562,0.0076 -2.3579,0.0116 -0.7045,-0.0058 -1.4089,-0.0116 -2.1346,-0.0175 -0.609,-9e-4 -1.218,-0.0017 -1.8454,-0.0025 -0.5062,-0.0831 -1.0124,-0.1661 -1.5339,-0.2517 -0.66,-0.66 -1.32,-1.32 -2,-2 -0.0117,-1.6914 -0.0117,-1.6914 0.3125,-3.5625 0.0993,-0.62 0.1985,-1.2401 0.3008,-1.8789 0.1276,-0.5143 0.2552,-1.0287 0.3867,-1.5586 0.33,-0.33 0.66,-0.66 1,-1 1.3946,-0.1278 1.3946,-0.1278 3.2196,-0.1318 0.3471,-0.0019 0.3471,-0.0019 2.1037,-0.0119 0.7719,7e-4 1.5437,0.0015 2.339,0.0022 0.8162,-0.0031 1.6325,-0.0062 2.4734,-0.0095 2.7707,-0.0094 5.5413,-0.0116 8.312,-0.0139 1.9922,-0.0053 3.9845,-0.011 5.9768,-0.0171 4.3501,-0.0127 8.7001,-0.0216 13.0502,-0.028 6.4688,-0.0097 12.9377,-0.025 19.4065,-0.0415 11.5524,-0.0292 23.1049,-0.0526 34.6574,-0.0737 10.1132,-0.0184 20.2265,-0.0387 30.3398,-0.0608 0.6699,-0.0015 1.3398,-0.0029 2.03,-0.0044 2.7192,-0.006 5.4384,-0.0119 8.1576,-0.0179 25.5336,-0.0559 51.0672,-0.1059 76.6008,-0.1534 22.691,-0.0422 45.382,-0.0896 68.0729,-0.1414 25.4768,-0.0582 50.9536,-0.113 76.4304,-0.1626 2.7162,-0.0053 5.4324,-0.0106 8.1486,-0.0159 0.6688,-0.0013 1.3377,-0.0026 2.0268,-0.004 10.1033,-0.0197 20.2067,-0.042 30.3101,-0.0655 11.4919,-0.0267 22.9837,-0.0498 34.4756,-0.0681 6.4328,-0.0103 12.8656,-0.0235 19.2984,-0.0406 4.2969,-0.0112 8.5937,-0.0187 12.8906,-0.0232 2.4484,-0.0026 4.8968,-0.0074 7.3452,-0.0156 2.6391,-0.0086 5.2781,-0.0109 7.9173,-0.0116 0.7578,-0.004 1.5156,-0.0079 2.2964,-0.012 C -3.5688,-1.1078 -3.5688,-1.1078 0,0 Z"
         fill="currentColor"
         transform="translate(720,786)"
         id="path17-7"
         style="fill:#1a1f2e;fill-opacity:1;stroke:none" /><path
         d="m 4.4919,-0.042 c 2.4972885,-0.02083242 4.9946402,-0.03025226 7.492,-0.0371 2.5636,-0.0096 5.1263,-0.0406 7.6897,-0.0723 24.91878,-0.14372861 47.724366,12.644255 65.2236,29.6763 10.8068,11.305 16.2705,25.8787 20.1765,40.762 1.0156,4.2721 1.6111,8.3137 1.6487,12.7063 0.004,0.2744 0.004,0.2744 0.0214,1.6632 0.12,12.0881 0.1082,23.7859 -3.2245,35.5047 -0.1934,0.6823 -0.3867,1.3645 -0.586,2.0674 -8.5958,29.3294 -23.8148,55.509 -40.414,80.9326 -11.644756,18.04777 -21.165511,30.96766 -31,43 -4.374961,5.3527 -5.159822,6.29765 -7.3345,9.333 -2.167441,3.02525 -5.935133,8.87164 -8.143808,8.84185 -2.836112,0.002 -6.7850502,-5.57682 -8.517792,-7.49315 -24.532423,-29.89148 -45.356604,-61.99472 -65.082661,-95.2059 -9.53056,-18.28026 -12.862233,-25.7523 -18.397839,-46.1672 -0.693213,-4.75628 -1.511083,-8.71336 -1.6562,-16.0898 -0.01818,-0.924122 -0.0026,-1.8485 -0.0039,-2.8008 0.0019,-0.4815 0.0019,-0.4815 0.0117,-2.918 -0.0039,-0.9629 -0.0077,-1.9258 -0.0117,-2.9179 0.0013,-0.9243 0.0025,-1.8486 0.0039,-2.8008 -0.07227,-14.558745 5.436246,-29.280332 11.1328,-41.5313 5.600307,-10.544954 12.643797,-16.674762 19.6809,-22.6467 4.209,-3.9048 8.4567,-7.2649 13.3191,-10.3376 2,-1.2657 2,-1.2657 3.4375,-2.3438 C -25.622,7.7670999 -10.163396,0.039203 4.4919,-0.042 Z m 5.6446,48.4492 c -8.6041,1.1889 -16.0015,4.2786 -22.9414,9.5039 -6.1773,5.6478 -9.624,12.7061 -12.4883,20.4453 -1.9245,6.6022 -1.7441,13.5868 -0.5,20.3047 1.9556,7.7406 5.757,14.3389 10.9805,20.3203 0.4395,0.3893 0.8791,0.7786 1.332,1.1797 h 2 v 2 c 1.539,1.1836 1.539,1.1836 3.625,2.4375 0.3364,0.2056 0.3364,0.2056 2.039,1.2461 0.7709,0.4344 1.5418,0.8689 2.336,1.3164 0.2236,0.1324 0.2236,0.1324 1.3552,0.8023 3.965,2.2008 7.46,2.7631 11.9573,2.9477 0.663,0.0317 1.3259,0.0634 2.009,0.096 1.8932,0.0756 3.7841,0.1228 5.6785,0.154 0.843,0.0142 1.6861,0.0284 2.5547,0.043 6.8652,-0.3395 12.6084,-3.6835 18.4453,-7.043 0.6961,-0.3931 1.3922,-0.7863 2.1094,-1.1914 5.0245,-3.1903 8.056,-7.639 10.8906,-12.8086 0.8306,-1.9977 1.425,-3.9091 2,-6 l 1,-1 C 56.1713,95.0847 56.5409,86.0529 54.4568,78.0361 51.9621,70.845 47.8063,63.9214 42.1443,58.7861 34.5489,52.9292 26.3857,49.357 16.8748,47.9111 c -2.2734,-0.1048 -4.4779,0.2627 -6.7383,0.4961 z"
         fill="currentColor"
         transform="translate(1335.4807,839.83887)"
         id="path18"
         style="fill:#1a1f2e;fill-opacity:1;stroke:none" /><path
         d="m 0,0 c 2.4361,0.6539 3.0571,1.1749 5,3 1.514,2.201 2.3351,4.4165 3,7 0.2755,3.9002 0.2172,7.7606 0.1118,11.6669 -0.084,3.2317 -0.113,6.4637 -0.1352,9.6964 -0.0046,0.6474 -0.0092,1.2949 -0.0139,1.962 -0.0244,10.0788 0.9869,20.1503 2.3796,30.1266 0.7895,5.9309 0.7895,5.9309 0.1265,9.0364 -1.8329,3.4514 -3.5022,5.8954 -6.8438,8.0117 -2.1922,1.0448 -4.1994,1.7925 -6.625,2 -3.1125,-0.2663 -5.6973,-1.3882 -8.292,-3.0994 -2.4323,-1.9945 -3.5578,-4.0176 -4.8872,-6.8444 -1.7153,-5.3419 -1.5121,-10.9298 -1.5708,-16.4937 -0.0272,-1.3291 -0.0557,-2.6582 -0.0854,-3.9873 -0.0695,-3.3738 -0.1134,-6.7472 -0.1457,-10.1215 -0.0182,-1.8774 -0.0409,-3.7546 -0.0648,-5.6319 -0.0406,-3.3573 -0.0648,-6.7144 -0.0791,-10.0718 -0.0029,-0.5028 -0.0057,-1.0056 -0.0087,-1.5237 C -18.1932,9.9925 -18.1932,9.9925 -17,5 -15.4963,3.084 -14.2723,1.997 -12.168,0.7734 -8.0908,-0.6811 -4.245,-0.6414 0,0 Z"
         fill="currentColor"
         transform="translate(1195,864)"
         id="path19"
         style="fill:#1a1f2e;fill-opacity:1;stroke:none" /><path
         d="M 0,0 C 2.9311,1.0492 4.8022,2.8022 7,5 7.6406,6.3398 7.6406,6.3398 8.25,7.9375 11.5032,15.824 36.3441,48.3965 39,53 c 0.7974,2.6579 0.9529,4.3396 0.5977,7.0664 C 38.6127,63.2532 37.3353,65.6111 35,68 c -2.25,1.875 -2.25,1.875 -5,3 -2.7462,0.4019 -5.2705,0.5273 -8,0 C 17.4798,68.8288 14.4617,65.6245 11.125,61.9375 10.5998,61.364 10.0746,60.7906 9.5334,60.1997 5.7751,56.0285 2.4691,51.721 -0.5977,47.0234 -6.1715286,41.387044 -9.3752079,34.162542 -13.6055,27.5273 c -2.6889,-4.3007 -4.7175,-8.1911 -5.0139,-13.3303 -0.0113,-3.156 0.126,-6.0507 1.3928,-8.9939 1.3955,-1.8978 3.0526,-3.0988 5.0586,-4.3008 C -8.2433,-0.7312 -4.1722,-0.4531 0,0 Z"
         fill="currentColor"
         transform="translate(1215,974)"
         id="path20"
         style="fill:#1a1f2e;fill-opacity:1;stroke:none" /><path
         d="m 0,0 c 0.799,-0.0058 1.5979,-0.0117 2.4211,-0.0177 0.4385,0.0019 0.4385,0.0019 2.6576,0.0115 0.4662,-0.0019 0.4662,-0.0019 2.8249,-0.0116 2.589,-0.0086 5.1778,-0.0081 7.7668,-0.0038 2.7914,0.0024 5.5828,-0.0066 8.3742,-0.0141 5.4687,-0.0127 10.9374,-0.0145 16.4061,-0.0122 4.4431,0.0018 8.8861,10e-5 13.3292,-0.0042 0.6318,-6e-4 1.2636,-0.0012 1.9146,-0.0018 l 3.8501,-0.0036 c 12.0397,-0.0109 24.0794,-0.0088 36.1192,-0.0027 11.0239,0.0052 22.0477,-0.006 33.0716,-0.0251 11.3116,-0.0193 22.623,-0.0276 33.9346,-0.0238 6.3538,0.0019 12.7075,-6e-4 19.0612,-0.0147 5.4076,-0.0119 10.8151,-0.0134 16.2227,-0.0013 2.7608,0.006 5.5214,0.007 8.2822,-0.005 2.9879,-0.0127 5.9755,-0.0024 8.9635,0.0104 0.8793,-0.0074 1.7585,-0.0148 2.6644,-0.0224 0.7964,0.0072 1.5927,0.0144 2.4132,0.0218 0.6902,0 1.3805,-10e-5 2.0916,-10e-5 0.5633,0.1237 1.1265,0.2474 1.7069,0.3749 1.21,1.3711 1.21,1.3711 2,3 0.4375,2.4375 0.4375,2.4375 0,5 -1.719,1.8731 -2.7811,2.8849 -5,4 -3.0656,0.581 -6.0793,0.5443 -9.1922,0.5146 -0.9284,0.007 -1.8568,0.0139 -2.8134,0.0211 -2.5695,0.0151 -5.1379,0.0123 -7.7074,0.0018 -2.7737,-0.007 -5.5474,0.009 -8.3211,0.022 -5.4303,0.0217 -10.8605,0.0215 -16.2909,0.0134 -4.413,-0.0063 -8.826,-0.0052 -13.239,0.0013 -0.3141,4e-4 -0.3141,4e-4 -1.9035,0.0027 -1.2762,0.0019 -2.5523,0.0037 -3.8284,0.0056 -11.964,0.0166 -23.9279,0.0079 -35.8919,-0.009 -10.9481,-0.0147 -21.896,0 -32.8441,0.0288 -11.2416,0.0294 -22.483,0.0404 -33.7246,0.0308 l -3.8134,-0.003 c -0.6254,-5e-4 -1.2508,-9e-4 -1.8952,-0.0014 C 45.2021,12.881 40.7937,12.8908 36.3853,12.9054 31.0139,12.9229 25.6429,12.9228 20.2716,12.9 17.5306,12.8889 14.7903,12.8858 12.0494,12.9043 9.0796,12.9242 6.1107,12.9054 3.1409,12.8827 2.2727,12.8945 1.4045,12.9063 0.51,12.9185 -1.7457,12.8833 -3.7349,12.7972 -5.9243,12.2545 -8.059,10.7274 -7.9377,3.0617 -5.6015,1.2008 -3.5764,0.0582 -2.3165,0.0029 0,0 Z"
         fill="currentColor"
         transform="translate(931.92432,1005.7455)"
         id="path21"
         style="fill:#1a1f2e;fill-opacity:1;stroke:none" /><path
         d="m 9.0144963,1.8208833 c 0.080312,3.935724 0.057502,4.4404327 0.00169,9.1533557 -0.092798,2.382024 -14.4040311,1.316741 -24.7241643,1.531541 -56.159337,0.03369 71.389503,0.150251 -20.306222,0.09562 -6.4893,-0.0038 -12.9786,-0.0018 -19.4679,0.0012 -11.5881,0.0053 -23.1761,0.0048 -34.7642,0.0019 -10.1413,-0.0025 -20.2826,-0.0031 -30.424,-0.0019 -0.6718,0 -1.3436,10e-5 -2.0357,2e-4 -2.7269,3e-4 -5.4538,6e-4 -8.1806,10e-4 -25.599,0.003 -51.198,2e-4 -76.797,-0.0051 -22.7582,-0.0048 -45.5164,-0.0044 -68.2747,4e-4 -25.5496,0.0054 -51.0992,0.0075 -76.6489,0.0044 l -8.1668,-9e-4 c -0.3352,-1e-4 -0.3352,-1e-4 -2.0313,-3e-4 -10.1359,-0.0011 -20.2718,0.0025 -30.4077,0.0027 -74.93714,0.0015 23.75751,-0.116153 -61.1128,-0.06618 26.75146,-0.761373 -31.9923,1.22145 -31.9633,-1.070012 v -9 c 0.0316,-2.97048327 7.00432,-2.19714099 17.467,-2.2494 8.70832,0.0210294 17.41666,0.006402 26.125,0.0244 28.40866,0.0657257 -0.8187,-0.0302854 49.741,0.0441 10.2989,0.015 20.5978,0.0255 30.8968,0.03 0.3203,2e-4 0.3203,2e-4 1.9414,9e-4 3.2538,0.0014 6.5076,0.0027 9.7615,0.004 23.0452,0.0091 46.0905,0.0267 69.1357,0.05 l 4.18,0.0042 c 0.6903,7e-4 1.3807,0.0014 2.0919,0.0021 3.4927,0.0036 6.9854,0.0071 10.4782,0.0106 0.3463,4e-4 0.3463,4e-4 2.0987,0.0021 16.0918,0.0162 32.1835,0.0298 48.2752,0.0425 0.6894,6e-4 1.3788,0.0011 2.0891,0.0017 15.7369,0.0124 31.4738,0.0237 47.2106,0.0326 0.6612,4e-4 1.3224,7e-4 2.0036,0.0011 5.9474,0.0034 11.8948,0.0067 17.8422,0.0098 14.8383,0.0076 29.6766,0.0182 44.515,0.0362 10.3376,0.0124 20.6752,0.0217 31.0128,0.0275 6.1445,0.0036 12.2889,0.0101 18.4334,0.0206 4.5825,0.0076 9.165,0.0099 13.7476,0.0103 5.599971,0.002713 12.352236,-0.19626491 21.04183,-0.15804031 9.2651036,-0.2440054 25.1373196,-0.63920195 25.2150663,1.40481861 z"
         fill="currentColor"
         transform="translate(714.28906,1006.5312)"
         id="path22"
         style="fill:#1a1f2e;fill-opacity:1;stroke:none" /><path
         d="m 0,0 c 5.7392308,0.25593475 8.8931231,6.1543485 11.9443,10.3784 1.2012,1.6497 2.4616,3.2316 3.751,4.813 0.8313,1.0399 1.6621,2.0803 2.4922,3.1211 0.3944,0.4786 0.7887,0.9571 1.1951,1.4502 3.305261,3.62279 7.172661,18.174442 -8.3028,15.7209 C 6.9304452,34.441907 3.2900962,32.145494 -0.4453,30.1465 -7.5427843,26.87214 -13.488379,22.48043 -13.832,14.2148 -13.45461,11.901028 -11.167702,1.7043464 0,0 Z"
         fill="currentColor"
         transform="translate(1286.875,1054)"
         id="path23"
         style="fill:#1a1f2e;fill-opacity:1;stroke:none" /></g><path
       id="path207"
       style="font-variation-settings:'opsz' 32;fill:#f7f6f2;fill-opacity:1;fill-rule:evenodd;stroke:none;stroke-width:0.348146;stroke-miterlimit:4.7"
       d="m 326.31974,916.26214 a 26.256683,26.256683 0 0 1 -26.37498,26.09805 26.256683,26.256683 0 0 1 -26.13779,-26.33559 26.256683,26.256683 0 0 1 26.29616,-26.17747 26.256683,26.256683 0 0 1 26.21709,26.25665" /><path
       id="path207-7"
       style="font-variation-settings:'opsz' 32;fill:#f7f6f2;fill-opacity:1;fill-rule:evenodd;stroke:none;stroke-width:0.304066;stroke-miterlimit:4.7"
       d="m 843.45329,1253.5041 a 22.932287,22.932287 0 0 1 -23.0356,22.7937 22.932287,22.932287 0 0 1 -22.82845,-23.0012 22.932287,22.932287 0 0 1 22.96676,-22.8631 22.932287,22.932287 0 0 1 22.89771,22.9323" /></g></svg>
